<svg width="571" height="539" viewBox="0 0 571 539" fill="none" xmlns="http://www.w3.org/2000/svg">
<g clip-path="url(#clip0_151_167)">
<path fill-rule="evenodd" clip-rule="evenodd" d="M298.518 68.1208C367.844 70.9277 413.945 131.243 458.528 184.35C505.26 240.016 567.164 298.555 551.531 369.506C535.833 440.754 454.803 467.864 389.06 499.632C323.093 531.508 253.608 573.232 185.422 546.415C112.887 517.888 66.6237 444.441 53.5369 367.674C41.2599 295.659 75.1043 227.272 121.371 170.699C166.802 115.148 226.769 65.2157 298.518 68.1208Z" fill="#14688B" fill-opacity="0.3"/>
<path fill-rule="evenodd" clip-rule="evenodd" d="M393.819 79.7038C458.544 104.702 482.445 177.693 507.269 243.244C533.289 311.955 572.736 388.314 534.697 451.712C496.5 515.376 410.895 515.466 338.24 524.964C265.337 534.494 185.878 552.39 130.095 504.603C70.7541 453.769 51.0005 368.061 63.7485 289.82C75.7075 216.421 130.15 161.352 192.487 121.669C253.697 82.7041 326.831 53.8319 393.819 79.7038Z" fill="#14688B" fill-opacity="0.3"/>
</g>
<defs>
<clipPath id="clip0_151_167">
<rect width="571" height="539" fill="white"/>
</clipPath>
</defs>
</svg>
