<svg width="467" height="557" viewBox="0 0 467 557" fill="none" xmlns="http://www.w3.org/2000/svg">
<ellipse cx="185.933" cy="464.313" rx="91.8244" ry="92.4849" transform="rotate(90 185.933 464.313)" fill="white" fill-opacity="0.1"/>
<ellipse cx="373.807" cy="278.167" rx="92.3359" ry="93" transform="rotate(90 373.807 278.167)" fill="white" fill-opacity="0.1"/>
<path opacity="0.1" d="M93.4482 93.4949C93.4482 105.621 95.8538 117.628 100.527 128.83C105.201 140.033 112.051 150.212 120.687 158.786C129.323 167.36 139.575 174.162 150.859 178.802C162.142 183.442 174.235 185.831 186.448 185.831C198.661 185.831 210.755 183.442 222.038 178.802C233.321 174.162 243.573 167.36 252.209 158.786C260.845 150.212 267.695 140.033 272.369 128.83C277.043 117.628 279.448 105.621 279.448 93.4949L186.448 93.4949L93.4482 93.4949Z" fill="white"/>
<path opacity="0.1" d="M0.000236511 370.665C12.2608 370.665 24.4014 368.267 35.7287 363.609C47.0561 358.95 57.3483 352.122 66.0179 343.515C74.6874 334.907 81.5645 324.688 86.2564 313.442C90.9484 302.195 93.3633 290.142 93.3633 277.968C93.3633 265.795 90.9484 253.742 86.2564 242.495C81.5645 231.249 74.6874 221.03 66.0179 212.422C57.3483 203.815 47.056 196.987 35.7287 192.328C24.4014 187.67 12.2608 185.272 0.000197299 185.272L0.000228349 277.968L0.000236511 370.665Z" fill="white"/>
<rect opacity="0.2" x="280.116" y="185.33" width="185.331" height="186.666" transform="rotate(90 280.116 185.33)" fill="white"/>
<path d="M466.779 370.662L367.335 466.694L280.116 555.992L280.116 370.662L466.779 370.662Z" fill="white" fill-opacity="0.15"/>
<path d="M280.116 185.33L379.56 89.2986L466.78 -7.40839e-05L466.78 185.33L280.116 185.33Z" fill="white" fill-opacity="0.15"/>
</svg>
