<svg width="54" height="54" viewBox="0 0 54 54" fill="none" xmlns="http://www.w3.org/2000/svg">
<path fill-rule="evenodd" clip-rule="evenodd" d="M27 49.5L27 34.5H30.75L30.75 49.5H49.5L49.5 15.75H53.25L53.25 49.5C53.25 50.4946 52.8549 51.4484 52.1516 52.1516C51.4484 52.8549 50.4946 53.25 49.5 53.25L4.5 53.25C3.50544 53.25 2.55161 52.8549 1.84835 52.1516C1.14509 51.4484 0.75 50.4946 0.75 49.5L0.75 42H4.5L4.5 49.5L27 49.5ZM45.1987 11.4525L33.9525 22.7025C34.5541 23.9547 34.671 25.3853 34.2807 26.7185C33.8904 28.0518 33.0205 29.1935 31.8387 29.9236C30.6568 30.6538 29.2466 30.9208 27.8796 30.6732C26.5126 30.4256 25.2856 29.6808 24.435 28.5825L14.2575 31.9725L12 32.7263C11.9763 34.0531 11.4843 35.3288 10.611 36.3279C9.73761 37.3271 8.53912 37.9852 7.22738 38.1861C5.91564 38.387 4.57511 38.1177 3.44277 37.4257C2.31043 36.7337 1.4592 35.6637 1.03955 34.4047C0.619905 33.1458 0.658869 31.779 1.14956 30.546C1.64024 29.3131 2.55105 28.2933 3.72098 27.6669C4.8909 27.0406 6.24459 26.848 7.54276 27.1233C8.84093 27.3986 9.99998 28.124 10.815 29.1713L23.25 25.0238C23.2667 24.0822 23.5196 23.16 23.9853 22.3416C24.4511 21.5231 25.1148 20.8347 25.9157 20.3395C26.7167 19.8442 27.6291 19.558 28.5694 19.507C29.5097 19.4559 30.4477 19.6418 31.2975 20.0475L42.5475 8.7975C41.9756 7.60014 41.8454 6.23914 42.1799 4.95506C42.5144 3.67097 43.2921 2.54649 44.3755 1.78035C45.4589 1.01421 46.7783 0.655755 48.1004 0.768338C49.4226 0.88092 50.6624 1.45729 51.6007 2.39558C52.539 3.33387 53.1153 4.57365 53.2279 5.89581C53.3405 7.21796 52.982 8.53735 52.2159 9.62077C51.4498 10.7042 50.3253 11.4819 49.0412 11.8164C47.7571 12.1509 46.3961 12.0207 45.1987 11.4488" fill="#14688B"/>
</svg>
