<svg width="369" height="156" viewBox="0 0 369 156" fill="none" xmlns="http://www.w3.org/2000/svg">
<g style="mix-blend-mode:plus-lighter" opacity="0.3">
<path fill-rule="evenodd" clip-rule="evenodd" d="M192.48 165.035L192.48 84.2541L274.259 84.2541L274.259 92.9092C274.259 132.743 241.568 165.035 201.242 165.035L192.48 165.035Z" fill="#A3A3A3" fill-opacity="0.2"/>
<path fill-rule="evenodd" clip-rule="evenodd" d="M192.48 -7.49731L192.48 74.2811L274.259 74.2811L274.259 65.5191C274.259 25.1932 241.568 -7.49731 201.242 -7.49731L192.48 -7.49731Z" fill="#A3A3A3" fill-opacity="0.2"/>
<path fill-rule="evenodd" clip-rule="evenodd" d="M369.002 -7.49731L369.002 74.2811L287.224 74.2811L287.224 65.5191C287.224 25.1932 319.914 -7.49732 360.24 -7.49731L369.002 -7.49731Z" fill="#A3A3A3" fill-opacity="0.2"/>
<path fill-rule="evenodd" clip-rule="evenodd" d="M287.223 164.038L287.223 82.2595L369.001 82.2595L369.001 91.0214C369.001 131.347 336.31 164.038 295.985 164.038L287.223 164.038Z" fill="#A3A3A3" fill-opacity="0.2"/>
<path d="M81.7793 162.535L79.7344 162.535L79.7344 162.991L79.2793 162.991L79.2793 165.035L75.6455 165.035L75.6455 162.535L71.5566 162.535L71.5566 165.035L67.4678 165.035L67.4678 162.535L63.3789 162.535L63.3789 165.035L59.29 165.035L59.29 162.535L55.2012 162.535L55.2012 165.035L51.1123 165.035L51.1123 162.535L47.0234 162.535L47.0234 165.035L42.9346 165.035L42.9346 162.535L38.8457 162.535L38.8457 165.035L34.7568 165.035L34.7568 162.535L30.668 162.535L30.668 165.035L26.5791 165.035L26.5791 162.535L22.4902 162.535L22.4902 165.035L18.4014 165.035L18.4014 162.535L14.3125 162.535L14.3125 165.035L10.2236 165.035L10.2236 162.535L6.13476 162.535L6.13476 165.035L2.50097 165.035L2.50097 162.845L2.04492 162.845L2.04492 162.535L0.000973097 162.535L0.000973275 158.464L2.50097 158.464L2.50097 156.273C2.50097 155.61 2.51012 154.948 2.52832 154.289L0.0302703 154.22C0.0681803 152.847 0.145124 151.484 0.25781 150.131L2.74707 150.338C2.8571 149.017 3.00375 147.706 3.18554 146.407L0.709958 146.061C0.900041 144.702 1.12884 143.357 1.39258 142.023L3.84277 142.509C4.09961 141.211 4.39269 139.925 4.71972 138.653L2.29883 138.03L2.29883 138.029C2.64025 136.702 3.01955 135.39 3.43261 134.093L5.8125 134.852C6.21381 133.591 6.64998 132.346 7.11914 131.118L4.78418 130.225C5.27259 128.946 5.79744 127.685 6.35449 126.442L8.63476 127.465C9.17507 126.259 9.74757 125.071 10.3525 123.902L8.13476 122.753C8.76349 121.538 9.42444 120.343 10.1182 119.17L12.2695 120.442C12.9414 119.306 13.6442 118.189 14.377 117.095L12.3008 115.704C13.0612 114.568 13.8525 113.455 14.6738 112.365L16.6689 113.87C17.4634 112.816 18.2866 111.785 19.1377 110.778L17.2295 109.164C18.1112 108.121 19.022 107.103 19.96 106.111L21.7754 107.829C22.6818 106.871 23.6148 105.938 24.5732 105.031L22.8564 103.215C23.8482 102.277 24.866 101.366 25.9092 100.484L27.5225 102.394C28.5293 101.543 29.5603 100.719 30.6143 99.9248L29.1104 97.9287C30.2 97.1074 31.3133 96.3161 32.4492 95.5557L33.8389 97.6328C34.9334 96.9 36.0499 96.1973 37.1865 95.5254L35.915 93.373C37.0885 92.6793 38.2835 92.0183 39.498 91.3896L40.6465 93.6084C41.8151 93.0034 43.0034 92.4309 44.209 91.8906L43.1875 89.6094C44.4306 89.0523 45.6919 88.5285 46.9707 88.04L47.8623 90.375C49.0906 89.9059 50.3356 89.4697 51.5957 89.0684L50.8379 86.6875C52.1349 86.2745 53.4471 85.8951 54.7744 85.5537L55.3975 87.9756C56.6689 87.6486 57.9547 87.3555 59.2529 87.0986L58.7686 84.6475C60.1013 84.3838 61.4469 84.1549 62.8047 83.9648L62.8047 83.9658L63.1514 86.4414C64.4504 86.2596 65.761 86.113 67.082 86.0029L66.876 83.5127C68.2288 83.4 69.5921 83.323 70.9648 83.2852L71.0332 85.7842C71.6923 85.766 72.354 85.7568 73.0176 85.7568L75.208 85.7568L75.208 83.2568L79.2793 83.2568L79.2793 85.3018L79.5889 85.3018L79.5889 85.7568L81.7793 85.7568L81.7793 89.3906L79.2793 89.3906L79.2793 93.4795L81.7793 93.4795L81.7793 97.5684L79.2793 97.5684L79.2793 101.657L81.7793 101.657L81.7793 105.746L79.2793 105.746L79.2793 109.835L81.7793 109.835L81.7793 113.924L79.2793 113.924L79.2793 118.013L81.7793 118.013L81.7793 122.102L79.2793 122.102L79.2793 126.19L81.7793 126.19L81.7793 130.279L79.2793 130.279L79.2793 134.368L81.7793 134.368L81.7793 138.457L79.2793 138.457L79.2793 142.546L81.7793 142.546L81.7793 146.635L79.2793 146.635L79.2793 150.724L81.7793 150.724L81.7793 154.812L79.2793 154.812L79.2793 158.901L81.7793 158.901L81.7793 162.535Z" stroke="#A3A3A3" stroke-opacity="0.3" stroke-width="5" stroke-dasharray="4 4"/>
<path fill-rule="evenodd" clip-rule="evenodd" d="M81.7793 75.2783L81.7793 -6.50005L0.000926731 -6.50006L0.000926348 2.26191C0.000924586 42.5878 32.6915 75.2783 73.0173 75.2783L81.7793 75.2783Z" fill="#A3A3A3" fill-opacity="0.2"/>
<path d="M94.7441 -4.99756L96.7891 -4.99756L96.7891 -5.47803L97.2441 -5.47803L97.2441 -7.49756L100.878 -7.49756L100.878 -4.99756L104.967 -4.99756L104.967 -7.49756L109.056 -7.49756L109.056 -4.99756L113.145 -4.99756L113.145 -7.49756L117.233 -7.49756L117.233 -4.99756L121.322 -4.99756L121.322 -7.49756L125.411 -7.49756L125.411 -4.99756L129.5 -4.99756L129.5 -7.49756L133.589 -7.49756L133.589 -4.99756L137.678 -4.99756L137.678 -7.49756L141.767 -7.49756L141.767 -4.99756L145.855 -4.99756L145.855 -7.49756L149.944 -7.49756L149.944 -4.99756L154.033 -4.99756L154.033 -7.49756L158.122 -7.49756L158.122 -4.99756L162.211 -4.99756L162.211 -7.49756L166.3 -7.49756L166.3 -4.99756L170.389 -4.99756L170.389 -7.49756L174.022 -7.49756L174.022 -5.33349L174.479 -5.33349L174.479 -4.99756L176.522 -4.99756L176.522 -1.00634L174.022 -1.00634L174.022 1.15772C174.022 1.81681 174.014 2.47386 173.995 3.12842L176.492 3.19873C176.454 4.56308 176.377 5.91783 176.263 7.26221L173.773 7.05127C173.662 8.36288 173.514 9.66401 173.33 10.9536L175.805 11.3062C175.612 12.6558 175.381 13.9933 175.114 15.3179L172.665 14.8237C172.405 16.112 172.11 17.3874 171.779 18.6489L174.196 19.2827C173.851 20.6005 173.468 21.9035 173.051 23.1909L170.675 22.4194C170.27 23.6685 169.83 24.9023 169.356 26.1196L171.685 27.0259C171.191 28.2938 170.663 29.5446 170.101 30.7769L167.827 29.7378C167.282 30.9312 166.705 32.1075 166.095 33.2642L168.305 34.4302C167.671 35.6321 167.004 36.8141 166.305 37.9751L164.164 36.686C163.488 37.8092 162.78 38.9122 162.043 39.9937L164.107 41.4019C163.342 42.524 162.546 43.6236 161.72 44.6997L159.738 43.1772C158.94 44.2169 158.113 45.2341 157.258 46.2271L159.151 47.8579C158.266 48.8864 157.352 49.8901 156.41 50.8677L154.61 49.1333C153.701 50.077 152.766 50.9959 151.805 51.8882L153.504 53.7192C152.51 54.6422 151.49 55.5384 150.445 56.4058L148.85 54.4829C147.842 55.3193 146.81 56.1281 145.755 56.9087L147.241 58.9185C146.152 59.7248 145.038 60.5012 143.902 61.2476L142.53 59.1587C141.437 59.8775 140.322 60.5671 139.187 61.2261L140.44 63.3882C139.269 64.0682 138.077 64.7174 136.864 65.3335L135.732 63.105C134.566 63.6976 133.381 64.2585 132.179 64.7876L133.185 67.0757C131.946 67.6208 130.689 68.134 129.415 68.6118L128.537 66.27C127.313 66.7289 126.073 67.1559 124.817 67.5483L125.563 69.9341C124.271 70.3377 122.965 70.707 121.644 71.0405L121.033 68.6167C119.768 68.9362 118.488 69.2222 117.196 69.4731L117.672 71.9263C116.346 72.1838 115.007 72.4067 113.656 72.5923L113.317 70.1157C112.025 70.2932 110.722 70.436 109.408 70.5435L109.61 73.0337C108.266 73.1436 106.91 73.2194 105.546 73.2563L105.479 70.7573C104.824 70.7751 104.166 70.7837 103.506 70.7837L101.315 70.7837L101.315 73.2837L97.2441 73.2837L97.2441 71.2642L96.9346 71.2642L96.9346 70.7837L94.7441 70.7837L94.7441 67.2251L97.2441 67.2251L97.2441 63.186L94.7441 63.186L94.7441 59.147L97.2441 59.147L97.2441 55.1079L94.7441 55.1079L94.7441 51.0688L97.2441 51.0688L97.2441 47.0298L94.7441 47.0298L94.7441 42.9907L97.2441 42.9907L97.2441 38.9517L94.7441 38.9517L94.7441 34.9126L97.2441 34.9126L97.2441 30.8735L94.7441 30.8735L94.7441 26.8345L97.2441 26.8345L97.2441 22.7954L94.7441 22.7954L94.7441 18.7563L97.2441 18.7563L97.2441 14.7173L94.7441 14.7173L94.7441 10.6782L97.2441 10.6782L97.2441 6.63916L94.7441 6.63916L94.7441 2.6001L97.2441 2.6001L97.2441 -1.43896L94.7441 -1.43896L94.7441 -4.99756Z" stroke="#A3A3A3" stroke-opacity="0.3" stroke-width="5" stroke-dasharray="4 4"/>
<path fill-rule="evenodd" clip-rule="evenodd" d="M94.7441 83.2568L94.7441 165.035L176.523 165.035L176.523 156.273C176.523 115.947 143.832 83.2568 103.506 83.2568L94.7441 83.2568Z" fill="#A3A3A3" fill-opacity="0.2"/>
</g>
</svg>
