<svg width="52" height="46" viewBox="0 0 52 46" fill="none" xmlns="http://www.w3.org/2000/svg">
<g clip-path="url(#clip0_574_2528)">
<path d="M31.9735 28.4974L30.9952 30.2028C30.7005 30.7165 30.1549 31.0331 29.5644 31.0331H22.0704C21.4799 31.0331 20.9343 30.7165 20.6396 30.2028L19.6613 28.4974H31.9735ZM34.7121 23.7234L32.9872 26.7302H18.6475L16.9227 23.7234H34.7121ZM33.0506 19.055L34.7149 21.9562H16.9199L18.5842 19.055H33.0506ZM29.5644 14.6417C30.1549 14.6417 30.7005 14.9583 30.9952 15.4721L32.0368 17.2877H19.598L20.6396 15.4721C20.9343 14.9583 21.4799 14.6417 22.0704 14.6417H29.5644Z" fill="#00435B"/>
<path d="M11.1628 13.8504C10.3326 9.80921 10.1544 6.70965 10.691 4.45894C11.0102 3.12035 11.5937 2.02834 12.4809 1.24048C13.4175 0.408697 14.6018 0.000542802 15.9324 0.000542802C18.1275 0.000542802 20.4352 1.00548 22.9013 2.91459C23.9072 3.69328 24.9511 4.63187 26.0353 5.73088C26.1216 5.61935 26.2192 5.51415 26.3279 5.41692C29.3931 2.67465 31.9738 0.970842 34.181 0.313905C35.4935 -0.0767097 36.7257 -0.113924 37.8478 0.265181C39.0323 0.665352 39.9761 1.49256 40.6419 2.65122C41.7408 4.56342 42.0306 7.07607 41.6209 10.1785C41.4539 11.4431 41.1684 12.8207 40.7651 14.3132C40.9172 14.3317 41.0698 14.3655 41.2208 14.4158C45.11 15.7096 47.8639 17.101 49.5311 18.6911C50.5231 19.6372 51.1709 20.6905 51.4051 21.8563C51.6522 23.0869 51.4112 24.3213 50.7462 25.4791C49.6493 27.3885 47.6325 28.8945 44.7593 30.0873C43.6056 30.5662 42.3003 31 40.8419 31.3901C40.9084 31.541 40.96 31.7012 40.9946 31.8692C41.8247 35.9104 42.0029 39.01 41.4663 41.2607C41.1471 42.5993 40.5637 43.6913 39.6765 44.4792C38.7398 45.3109 37.5555 45.7191 36.2249 45.7191C34.0298 45.7191 31.7222 44.7142 29.2561 42.805C28.2395 42.0181 27.184 41.0678 26.0874 39.9536C25.9745 40.1308 25.836 40.2955 25.6721 40.4421C22.6069 43.1843 20.0262 44.8881 17.819 45.5451C16.5065 45.9357 15.2743 45.9729 14.1522 45.5938C12.9677 45.1936 12.0239 44.3664 11.3581 43.2078C10.2592 41.2956 9.96938 38.7829 10.3791 35.6804C10.5521 34.3701 10.8524 32.9386 11.2791 31.3835C11.1123 31.3665 10.9448 31.3311 10.7792 31.276C6.89005 29.9821 4.13614 28.5907 2.46886 27.0006C1.47687 26.0546 0.829092 25.0013 0.594923 23.8354C0.347758 22.6048 0.588763 21.3705 1.25385 20.2127C2.35071 18.3033 4.36751 16.7973 7.2407 15.6045C8.42876 15.1112 9.77763 14.6659 11.2889 14.2669C11.2351 14.1345 11.1925 13.9954 11.1628 13.8504Z" fill="#002B3B"/>
<path d="M38.2809 32.2666C38.6676 32.1978 39.0382 32.4466 39.1245 32.8285L39.1292 32.8511L39.1704 33.066C40.5072 40.1213 39.5656 43.649 36.3456 43.649C33.1952 43.649 29.1847 40.6388 24.3143 34.6185C24.2066 34.4855 24.1486 34.319 24.15 34.1476C24.1536 33.7484 24.4726 33.4262 24.8674 33.4175L24.8903 33.4174L25.1468 33.4192C27.1963 33.4304 29.1887 33.3586 31.1241 33.204C33.4087 33.0215 35.7943 32.709 38.2809 32.2666ZM16.1674 26.9334L16.1797 26.9544L16.3084 27.1798C17.3398 28.9799 18.4143 30.6883 19.5319 32.3052C20.8482 34.2093 22.3284 36.1369 23.9726 38.0881C24.2269 38.3899 24.1979 38.8379 23.9109 39.1044L23.8923 39.1211L23.7268 39.2641C18.287 43.9434 14.7513 44.8776 13.1197 42.0666C11.5227 39.315 12.1017 34.3118 14.8568 27.0571C14.9173 26.8977 15.0311 26.7643 15.1787 26.6797C15.5236 26.4821 15.961 26.5962 16.1674 26.9334ZM41.0414 16.5227L41.0636 16.53L41.2684 16.601C47.983 18.9459 50.5341 21.5228 48.9216 24.3318C47.3445 27.0791 42.7597 29.0794 35.1673 30.3326C34.998 30.3606 34.8243 30.3281 34.6763 30.2408C34.327 30.0346 34.2102 29.5831 34.4156 29.2324C35.5031 27.3753 36.4825 25.5276 37.3539 23.6891C38.3421 21.604 39.2695 19.3659 40.1361 16.9749C40.2674 16.6124 40.6534 16.4155 41.019 16.5161L41.0414 16.5227ZM17.323 15.3421C17.6724 15.5482 17.7891 15.9997 17.5837 16.3505C16.4962 18.2075 15.5168 20.0553 14.6455 21.8938C13.6572 23.9789 12.7298 26.2169 11.8633 28.6079C11.7292 28.9778 11.3301 29.1753 10.958 29.0602L10.9357 29.0529L10.7309 28.9819C4.01631 26.637 1.46525 24.06 3.07775 21.251C4.65483 18.5037 9.23959 16.5034 16.832 15.2502C17.0013 15.2222 17.1751 15.2548 17.323 15.3421ZM38.8796 3.79255C40.4766 6.54414 39.8976 11.5473 37.1426 18.802C37.082 18.9614 36.9682 19.0948 36.8206 19.1794C36.4757 19.377 36.0384 19.2629 35.8319 18.9257L35.8196 18.9047L35.6909 18.6793C34.6596 16.8792 33.5851 15.1708 32.4674 13.5539C31.1511 11.6498 29.6709 9.72218 28.0268 7.77105C27.7724 7.4692 27.8015 7.02117 28.0884 6.75472L28.1071 6.73796L28.2725 6.59502C33.7124 1.91566 37.2481 0.981502 38.8796 3.79255ZM15.9289 2.11804C19.0793 2.11804 23.0898 5.1282 27.9602 11.1485C28.0679 11.2815 28.1259 11.4481 28.1245 11.6194C28.1209 12.0186 27.8019 12.3408 27.4071 12.3495L27.3842 12.3496L27.1277 12.3478C25.0782 12.3366 23.0858 12.4084 21.1504 12.563C18.8658 12.7456 16.4802 13.058 13.9936 13.5005C13.6069 13.5693 13.2363 13.3204 13.15 12.9385L13.1453 12.9159L13.1041 12.701C11.7673 5.64571 12.7089 2.11804 15.9289 2.11804Z" fill="#FF4154"/>
<path d="M22.6725 14.7338H28.9631C29.883 14.7338 30.7327 15.2277 31.1906 16.0288L34.3492 21.5539C34.8035 22.3488 34.8035 23.326 34.3492 24.1208L31.1906 29.646C30.7327 30.447 29.883 30.941 28.9631 30.941H22.6725C21.7526 30.941 20.9029 30.447 20.445 29.646L17.2864 24.1208C16.8321 23.326 16.8321 22.3488 17.2864 21.5539L20.445 16.0288C20.9029 15.2277 21.7526 14.7338 22.6725 14.7338ZM28.0043 16.4014C28.9248 16.4014 29.7748 16.8959 30.2326 17.6976L32.4351 21.5551C32.8885 22.3493 32.8885 23.3254 32.4351 24.1196L30.2326 27.9772C29.7748 28.7788 28.9248 29.2733 28.0043 29.2733H23.6313C22.7108 29.2733 21.8608 28.7788 21.403 27.9772L19.2005 24.1196C18.747 23.3254 18.747 22.3493 19.2005 21.5551L21.403 17.6976C21.8608 16.8959 22.7108 16.4014 23.6313 16.4014H28.0043ZM26.971 18.2253H24.6646C23.7451 18.2253 22.8958 18.7188 22.4377 19.5192L21.2738 21.5528C20.8186 22.3482 20.8186 23.3265 21.2738 24.1219L22.4377 26.1555C22.8958 26.9559 23.7451 27.4494 24.6646 27.4494H26.971C27.8905 27.4494 28.7398 26.9559 29.1979 26.1555L30.3618 24.1219C30.817 23.3265 30.817 22.3482 30.3618 21.5528L29.1979 19.5192C28.7398 18.7188 27.8905 18.2253 26.971 18.2253ZM25.9759 19.9711C26.8947 19.9711 27.7436 20.4639 28.2019 21.2633L28.3669 21.5511C28.8234 22.3474 28.8234 23.3273 28.3669 24.1236L28.2019 24.4114C27.7436 25.2108 26.8947 25.7036 25.9759 25.7036H25.6597C24.7408 25.7036 23.892 25.2108 23.4337 24.4114L23.2687 24.1236C22.8122 23.3273 22.8122 22.3474 23.2687 21.5511L23.4337 21.2633C23.892 20.4639 24.7408 19.9711 25.6597 19.9711H25.9759ZM25.8182 21.6909C25.4093 21.6909 25.0321 21.9094 24.828 22.2641C24.6238 22.6188 24.6238 23.0559 24.828 23.4106C25.0321 23.7654 25.4093 23.9839 25.8174 23.9839C26.2263 23.9839 26.6034 23.7654 26.8076 23.4106C27.0118 23.0559 27.0118 22.6188 26.8076 22.2641C26.6034 21.9094 26.2263 21.6909 25.8182 21.6909ZM16.5527 22.8374H18.6088H16.5527Z" fill="#FFD94C"/>
</g>
<defs>
<clipPath id="clip0_574_2528">
<rect width="51" height="46" fill="white" transform="translate(0.5)"/>
</clipPath>
</defs>
</svg>
