<svg width="34" height="35" viewBox="0 0 34 35" fill="none" xmlns="http://www.w3.org/2000/svg">
<g clip-path="url(#clip0_574_2502)">
<path d="M0.175781 0.958374H33.5413V34.3239H0.175781V0.958374Z" fill="#DFC000"/>
<path d="M30.8105 26.3662C30.5663 24.8438 29.5736 23.5657 26.6335 22.3731C25.6122 21.9037 24.4736 21.5676 24.1342 20.7937C24.0137 20.3433 23.9979 20.0896 24.074 19.8168C24.2928 18.9319 25.349 18.656 26.1863 18.9097C26.7255 19.0905 27.2361 19.506 27.5437 20.1688C28.9837 19.2364 28.9805 19.2427 29.9859 18.6021C29.618 18.0312 29.4213 17.7679 29.1803 17.5237C28.3144 16.5564 27.1346 16.0585 25.2475 16.0965C24.9208 16.1377 24.591 16.1821 24.2643 16.2234C23.3223 16.4612 22.4247 16.956 21.8982 17.6189C20.3188 19.4109 20.7691 22.5476 22.6911 23.8385C24.5846 25.2593 27.3661 25.5828 27.7213 26.9118C28.067 28.5388 26.5257 29.0653 24.9937 28.8782C23.8646 28.6435 23.2367 28.0694 22.5579 27.0259C21.3083 27.7491 21.3083 27.7491 20.0238 28.4881C20.3283 29.1541 20.6486 29.4554 21.1593 30.0326C23.5761 32.4843 29.6243 32.3638 30.709 28.653C30.7534 28.5261 31.0452 27.6761 30.8105 26.3662ZM18.3143 16.2931H15.1934C15.1934 18.989 15.1808 21.6659 15.1808 24.3617C15.1808 26.0776 15.2696 27.6507 14.9905 28.1328C14.5338 29.0811 13.3507 28.9638 12.8116 28.7798C12.2629 28.5102 11.9838 28.1264 11.6603 27.5841C11.5715 27.4287 11.5048 27.3082 11.4826 27.2987C10.6358 27.8156 9.79214 28.3358 8.94531 28.8528C9.36717 29.7186 9.98878 30.4703 10.7849 30.9587C11.9742 31.6723 13.5727 31.8911 15.2442 31.5074C16.3321 31.1902 17.2708 30.5337 17.7624 29.5347C18.4729 28.2248 18.3206 26.639 18.3143 24.8851C18.3302 22.0243 18.3143 19.1634 18.3143 16.2931Z" fill="#323330"/>
</g>
<defs>
<clipPath id="clip0_574_2502">
<rect width="33.3655" height="33.3655" fill="white" transform="translate(0.175781 0.958374)"/>
</clipPath>
</defs>
</svg>
