<svg width="47" height="46" viewBox="0 0 47 46" fill="none" xmlns="http://www.w3.org/2000/svg">
<path d="M45.5786 20.9825L25.5186 0.923983C25.2439 0.649013 24.9176 0.430885 24.5584 0.282063C24.1993 0.13324 23.8144 0.0566406 23.4256 0.0566406C23.0369 0.0566406 22.652 0.13324 22.2928 0.282063C21.9337 0.430885 21.6074 0.649013 21.3326 0.923983L17.1686 5.08998L22.4516 10.373C23.0728 10.162 23.7405 10.1291 24.3793 10.2779C25.0182 10.4267 25.6027 10.7513 26.0666 11.215C26.5332 11.682 26.8589 12.2709 27.0065 12.9144C27.154 13.5578 27.1175 14.2298 26.9011 14.8535L31.9946 19.9455C32.6185 19.7288 33.2907 19.6923 33.9344 19.8402C34.578 19.988 35.1669 20.3143 35.6336 20.7815C35.9606 21.1084 36.2199 21.4964 36.3969 21.9235C36.5738 22.3506 36.6649 22.8084 36.6649 23.2707C36.6649 23.733 36.5738 24.1908 36.3969 24.6179C36.2199 25.045 35.9606 25.4331 35.6336 25.76C34.9727 26.4203 34.0766 26.7911 33.1424 26.7911C32.2081 26.7911 31.3121 26.4203 30.6511 25.76C30.1601 25.2682 29.8256 24.6421 29.6897 23.9606C29.5537 23.2791 29.6224 22.5725 29.8871 21.93L25.1371 17.1815V29.68C25.6385 29.9276 26.0736 30.2912 26.4065 30.7405C26.7394 31.1898 26.9605 31.712 27.0514 32.2637C27.1423 32.8155 27.1004 33.381 26.9292 33.9133C26.7581 34.4457 26.4626 34.9296 26.0671 35.325C25.7403 35.6519 25.3522 35.9113 24.9251 36.0882C24.498 36.2651 24.0402 36.3562 23.5779 36.3562C23.1156 36.3562 22.6578 36.2651 22.2307 36.0882C21.8036 35.9113 21.4155 35.6519 21.0886 35.325C20.7616 34.9981 20.5022 34.61 20.3253 34.1828C20.1483 33.7557 20.0572 33.2979 20.0572 32.8355C20.0572 32.3731 20.1483 31.9153 20.3253 31.4881C20.5022 31.061 20.7616 30.6729 21.0886 30.346C21.4181 30.0159 21.8096 29.7544 22.2406 29.5765V16.963C21.8114 16.7862 21.4212 16.5263 21.0927 16.1982C20.7641 15.8702 20.5036 15.4804 20.3262 15.0514C20.1487 14.6224 20.0577 14.1625 20.0585 13.6983C20.0592 13.234 20.1517 12.7744 20.3306 12.346L15.1216 7.13598L1.36564 20.8885C0.811323 21.4439 0.5 22.1965 0.5 22.9812C0.5 23.7659 0.811323 24.5186 1.36564 25.074L21.4266 45.135C21.982 45.6892 22.7346 46.0004 23.5191 46.0004C24.3037 46.0004 25.0563 45.6892 25.6116 45.135L45.5786 25.168C46.133 24.6126 46.4443 23.8599 46.4443 23.0752C46.4443 22.2905 46.133 21.5379 45.5786 20.9825Z" fill="#F03C2E"/>
</svg>
