<svg width="49" height="43" viewBox="0 0 49 43" fill="none" xmlns="http://www.w3.org/2000/svg">
<path d="M48.5 21.5048C48.5 18.3073 44.5179 15.277 38.4128 13.3979C39.8216 7.14053 39.1955 2.16221 36.4364 0.568366C35.8004 0.194501 35.0569 0.0174068 34.2448 0.0174068V2.21141C34.6949 2.21141 35.0569 2.29995 35.3602 2.46721C36.6908 3.23462 37.268 6.15667 36.818 9.915C36.7104 10.8398 36.5342 11.8138 36.319 12.8075C34.4013 12.3353 32.3076 11.9713 30.1062 11.7351C28.7854 9.915 27.4156 8.26212 26.0361 6.81586C29.2256 3.83477 32.2195 2.20157 34.2546 2.20157V0.00756836C31.564 0.00756836 28.0418 1.93593 24.4804 5.28104C20.9191 1.9556 17.3969 0.0469228 14.7063 0.0469228V2.24092C16.7316 2.24092 19.7352 3.86429 22.9248 6.82569C21.555 8.27196 20.1853 9.915 18.884 11.7351C16.6729 11.9713 14.5791 12.3353 12.6614 12.8174C12.4364 11.8335 12.2701 10.8792 12.1527 9.9642C11.6928 6.20586 12.2603 3.28381 13.5811 2.50656C13.8746 2.32947 14.2562 2.25076 14.7063 2.25076V0.0567612C13.8844 0.0567612 13.1408 0.233855 12.4951 0.607721C9.74582 2.20157 9.12943 7.17004 10.5481 13.4077C4.46249 15.2967 0.5 18.3171 0.5 21.5048C0.5 24.7024 4.48206 27.7326 10.5872 29.6118C9.17835 35.8691 9.80453 40.8475 12.5636 42.4413C13.1996 42.8152 13.9431 42.9923 14.765 42.9923C17.4556 42.9923 20.9778 41.0639 24.5391 37.7188C28.1005 41.0442 31.6227 42.9529 34.3133 42.9529C35.1351 42.9529 35.8787 42.7758 36.5245 42.4019C39.2738 40.8081 39.8901 35.8396 38.4715 29.602C44.5375 27.7228 48.5 24.6925 48.5 21.5048ZM35.7613 14.9425C35.3993 16.2117 34.9492 17.5202 34.4405 18.8287C34.0393 18.0417 33.6186 17.2546 33.1588 16.4675C32.7087 15.6804 32.2293 14.913 31.7499 14.1653C33.1392 14.3719 34.4796 14.6277 35.7613 14.9425ZM31.2803 25.4206C30.5171 26.7488 29.7344 28.0081 28.9223 29.1789C27.4645 29.3068 25.9872 29.3757 24.5 29.3757C23.0226 29.3757 21.5453 29.3068 20.0972 29.1888C19.2852 28.018 18.4927 26.7685 17.7295 25.4501C16.9859 24.1612 16.3108 22.8527 15.6945 21.5343C16.3011 20.216 16.9859 18.8976 17.7197 17.6088C18.4829 16.2806 19.2656 15.0212 20.0777 13.8504C21.5355 13.7225 23.0128 13.6537 24.5 13.6537C25.9774 13.6537 27.4548 13.7225 28.9028 13.8406C29.7148 15.0114 30.5073 16.2609 31.2705 17.5792C32.0141 18.8681 32.6892 20.1766 33.3055 21.495C32.6892 22.8134 32.0141 24.1317 31.2803 25.4206ZM34.4405 24.1416C34.9688 25.4599 35.4189 26.7783 35.7907 28.0573C34.509 28.3722 33.1588 28.6378 31.7597 28.8444C32.2391 28.0868 32.7185 27.3096 33.1686 26.5127C33.6186 25.7256 34.0393 24.9287 34.4405 24.1416ZM24.5196 34.6393C23.6097 33.6948 22.6998 32.6421 21.7996 31.491C22.6802 31.5303 23.5803 31.5598 24.4902 31.5598C25.4099 31.5598 26.3198 31.5402 27.2102 31.491C26.3296 32.6421 25.4197 33.6948 24.5196 34.6393ZM17.2403 28.8444C15.851 28.6378 14.5106 28.382 13.2289 28.0672C13.5909 26.798 14.041 25.4895 14.5497 24.1809C14.9509 24.968 15.3716 25.7551 15.8314 26.5422C16.2913 27.3293 16.7609 28.0967 17.2403 28.8444ZM24.4707 8.37035C25.3806 9.31485 26.2905 10.3676 27.1906 11.5187C26.31 11.4793 25.4099 11.4498 24.5 11.4498C23.5803 11.4498 22.6704 11.4695 21.7801 11.5187C22.6606 10.3676 23.5705 9.31485 24.4707 8.37035ZM17.2305 14.1653C16.7511 14.9228 16.2717 15.7001 15.8216 16.497C15.3716 17.2841 14.9509 18.0712 14.5497 18.8583C14.0214 17.5399 13.5713 16.2215 13.1996 14.9425C14.4812 14.6375 15.8314 14.3719 17.2305 14.1653ZM8.37607 26.4831C4.91256 24.9975 2.67203 23.0495 2.67203 21.5048C2.67203 19.9602 4.91256 18.0023 8.37607 16.5265C9.21749 16.1625 10.1372 15.8378 11.0862 15.5328C11.6439 17.4612 12.3777 19.4683 13.2876 21.5245C12.3875 23.5709 11.6635 25.5682 11.1156 27.4867C10.147 27.1817 9.22727 26.8472 8.37607 26.4831ZM13.6398 40.5425C12.3092 39.775 11.732 36.853 12.182 33.0947C12.2896 32.1698 12.4658 31.1958 12.681 30.2021C14.5987 30.6744 16.6924 31.0384 18.8938 31.2745C20.2146 33.0947 21.5844 34.7475 22.9639 36.1938C19.7744 39.1749 16.7805 40.8081 14.7454 40.8081C14.3051 40.7983 13.9333 40.7097 13.6398 40.5425ZM36.8473 33.0455C37.3072 36.8038 36.7397 39.7259 35.4189 40.5031C35.1254 40.6802 34.7438 40.7589 34.2937 40.7589C32.2684 40.7589 29.2648 39.1355 26.0752 36.1741C27.445 34.7279 28.8147 33.0848 30.116 31.2647C32.3272 31.0286 34.4209 30.6645 36.3386 30.1824C36.5636 31.1761 36.7397 32.1305 36.8473 33.0455ZM40.6141 26.4831C39.7727 26.8472 38.853 27.1718 37.904 27.4768C37.3463 25.5485 36.6125 23.5414 35.7026 21.4852C36.6027 19.4387 37.3267 17.4415 37.8746 15.523C38.8433 15.828 39.7629 16.1625 40.6239 16.5265C44.0874 18.0121 46.328 19.9602 46.328 21.5048C46.3182 23.0495 44.0777 25.0074 40.6141 26.4831Z" fill="#00A9D8"/>
<path d="M24.4908 26.0012C26.9602 26.0012 28.9621 23.9882 28.9621 21.505C28.9621 19.0218 26.9602 17.0088 24.4908 17.0088C22.0214 17.0088 20.0195 19.0218 20.0195 21.505C20.0195 23.9882 22.0214 26.0012 24.4908 26.0012Z" fill="#00A9D8"/>
</svg>
