<svg width="53" height="52" viewBox="0 0 53 52" fill="none" xmlns="http://www.w3.org/2000/svg">
<path d="M24.7984 0.0405917C24.6867 0.050747 24.3313 0.0862904 24.0114 0.111679C16.6336 0.776848 9.72293 4.75771 5.34601 10.8763C2.90875 14.2783 1.34992 18.1373 0.760915 22.2248C0.552732 23.6516 0.527344 24.073 0.527344 26.0076C0.527344 27.9422 0.552732 28.3636 0.760915 29.7904C2.1725 39.5446 9.11362 47.7398 18.5275 50.7763C20.2133 51.3196 21.9905 51.6902 24.0114 51.9137C24.7984 52 28.2004 52 28.9875 51.9137C32.4758 51.5278 35.431 50.6646 38.3455 49.1768C38.7924 48.9483 38.8787 48.8874 38.8177 48.8366C38.7771 48.8061 36.873 46.2521 34.5881 43.1649L30.4346 37.5541L25.23 29.8514C22.3662 25.6166 20.0102 22.1537 19.9899 22.1537C19.9696 22.1486 19.9493 25.5709 19.9391 29.7498C19.9239 37.0667 19.9188 37.3612 19.8274 37.5338C19.6954 37.7826 19.5938 37.8842 19.3806 37.9959C19.2181 38.0771 19.0759 38.0924 18.3092 38.0924H17.4308L17.1972 37.9451C17.0449 37.8486 16.9332 37.7217 16.857 37.5744L16.7504 37.3459L16.7605 27.1653L16.7758 16.9796L16.9332 16.7815C17.0144 16.6749 17.187 16.5378 17.3089 16.4718C17.5171 16.3702 17.5983 16.3601 18.4768 16.3601C19.5126 16.3601 19.6852 16.4007 19.9544 16.6952C20.0305 16.7765 22.8486 21.0214 26.2201 26.1345C29.5917 31.2477 34.2022 38.2294 36.4668 41.6568L40.5797 47.8871L40.7879 47.75C42.6311 46.5517 44.5809 44.8456 46.1245 43.0684C49.4097 39.2957 51.5271 34.6954 52.2379 29.7904C52.4461 28.3636 52.4715 27.9422 52.4715 26.0076C52.4715 24.073 52.4461 23.6516 52.2379 22.2248C50.8263 12.4706 43.8852 4.27533 34.4713 1.23891C32.8109 0.700684 31.0439 0.330017 29.0636 0.106601C28.5762 0.0558246 25.2199 -2.92975e-05 24.7984 0.0405917ZM35.431 15.7508C35.6747 15.8726 35.8727 16.1062 35.9438 16.3499C35.9844 16.482 35.9946 19.3051 35.9844 25.6674L35.9692 34.797L34.3596 32.3292L32.7449 29.8615V23.225C32.7449 18.9345 32.7652 16.5226 32.7957 16.4058C32.8769 16.1214 33.0546 15.898 33.2984 15.766C33.5065 15.6594 33.5827 15.6492 34.3799 15.6492C35.1314 15.6492 35.2634 15.6594 35.431 15.7508Z" fill="black"/>
</svg>
