<svg width="54" height="33" viewBox="0 0 54 33" fill="none" xmlns="http://www.w3.org/2000/svg">
<path d="M27 0.0438232C19.9334 0.0438232 15.5166 3.70081 13.75 11.0146C16.4 7.35758 19.4916 5.98624 23.025 6.90054C25.0409 7.42208 26.4818 8.93591 28.0768 10.6113C30.675 13.3409 33.6819 16.4999 40.25 16.4999C47.3166 16.4999 51.7334 12.843 53.5 5.5292C50.85 9.18618 47.7584 10.5575 44.225 9.64323C42.2091 9.12169 40.7682 7.60785 39.1732 5.93246C36.575 3.20284 33.5681 0.0438232 27 0.0438232ZM13.75 16.4999C6.6834 16.4999 2.2666 20.1569 0.5 27.4707C3.15 23.8137 6.2416 22.4424 9.775 23.3567C11.7909 23.8782 13.2318 25.392 14.8268 27.0674C17.425 29.797 20.4319 32.9561 27 32.9561C34.0666 32.9561 38.4834 29.2991 40.25 21.9853C37.6 25.6423 34.5084 27.0136 30.975 26.0993C28.9591 25.5778 27.5182 24.064 25.9232 22.3886C23.325 19.659 20.3181 16.4999 13.75 16.4999Z" fill="url(#paint0_linear_574_2497)"/>
<defs>
<linearGradient id="paint0_linear_574_2497" x1="-0.97234" y1="10.5757" x2="45.5735" y2="36.5063" gradientUnits="userSpaceOnUse">
<stop stop-color="#2298BD"/>
<stop offset="1" stop-color="#0ED7B5"/>
</linearGradient>
</defs>
</svg>
